<svg width="936" height="366" viewBox="0 0 936 366" fill="none" xmlns="http://www.w3.org/2000/svg">
<path d="M21.1415 62.3872C21.1415 53.291 21.1415 36.1675 47.243 37.176C73.3445 38.1844 74.1476 52.2725 74.3484 61.3788C74.77 80.8217 74.3484 139.171 74.3484 139.171C74.3484 139.766 74.1074 140.33 73.6757 140.734C72.2904 142.035 68.6663 144.808 62.1007 145.857C61.0567 146.018 60.2837 146.916 60.2837 147.974C60.2837 149.164 61.2374 150.122 62.422 150.122H100.831C102.016 150.122 102.97 149.164 102.97 147.974V147.662C102.97 146.553 102.126 145.615 101.022 145.514C97.0566 145.151 88.3829 143.921 88.3829 140.038C88.3829 134.996 88.8246 37.1457 88.8246 37.1457C88.8246 37.1457 90.9127 0.327148 51.4995 0.327148C12.0863 0.327148 14.054 37.7911 14.1142 39.1626C14.1142 39.1929 14.1142 39.2231 14.1142 39.2534L13.1103 137.023C13.1103 137.023 13.1103 142.529 1.78628 144.788C0.78238 144.989 0.0595703 145.867 0.0595703 146.895V147.934C0.0595703 149.124 1.01328 150.082 2.19788 150.082L33.0578 150.133C34.2424 150.133 35.1962 149.175 35.1962 147.985V147.258C35.1962 146.099 34.2826 145.151 33.1181 145.11C29.2029 144.989 21.1415 143.9 21.1415 137.023V62.3872Z" fill="#56422F"/>
<path d="M21.5941 38.6379C21.574 39.3337 22.4273 39.6867 22.8992 39.1724C26.212 35.5319 35.6989 26.8491 49.9845 28.1904C64.0792 29.5114 71.0263 34.5133 73.3754 36.621C73.8171 37.0143 74.5098 36.7924 74.6202 36.2075C75.6643 30.651 77.7524 9.75587 50.9181 7.24482C24.0838 4.73378 21.8049 30.9737 21.5941 38.6581V38.6379Z" fill="#FAF8F5"/>
<path d="M111.493 3.84572V4.97519C111.493 6.0744 112.377 6.96184 113.471 6.94167C116.633 6.88116 122.727 7.22403 125.206 10.4612C125.447 10.7738 125.548 11.1772 125.548 11.5705V138.928C125.548 139.442 125.347 139.946 124.986 140.309C123.871 141.419 120.98 143.607 115.348 144.01C114.314 144.081 113.511 144.928 113.511 145.967V147.157C113.511 148.246 114.384 149.123 115.469 149.123H157.221C168.685 149.123 179.909 145.18 188.533 137.587C195.419 131.526 201.282 122.803 200.851 110.802C199.877 83.4831 186.695 71.2708 172.199 67.7614C171.336 67.5496 170.733 66.7529 170.733 65.8655C170.733 65.0385 171.245 64.2923 172.028 64.02C175.07 62.9309 182.82 59.2904 188.151 49.0647C193.482 38.839 193.642 27.6048 188.422 17.9136C186.726 14.7672 184.678 12.226 182.519 10.1788C176.777 4.73316 169.057 1.89941 161.156 1.89941H113.451C112.367 1.89941 111.493 2.77677 111.493 3.86589V3.84572Z" fill="#56422F"/>
<path d="M136.289 17.3483C136.339 14.3734 138.246 11.5699 141.378 10.3093C143.226 9.56304 145.745 9.02856 149.159 8.98823C160.874 8.8773 179.717 18.7803 178.724 37.9509C177.73 57.1216 162.581 66.3388 149.701 66.4699C141.599 66.5506 138.096 63.3942 136.61 61.0344C135.887 59.8848 135.566 58.5738 135.586 57.2527L136.289 17.3483Z" fill="#FAF8F5"/>
<path d="M135.585 83.7253V131.304C135.585 131.304 136.729 144.827 153.846 142.871C170.962 140.915 180.108 132.111 183.531 123.307C186.955 114.503 195.628 78.9755 156.135 71.4525C152.28 70.7163 148.746 70.9483 145.724 71.7248C139.631 73.298 135.595 78.2696 135.595 83.7253H135.585Z" fill="#FAF8F5"/>
<path d="M201.852 3.63957V4.94642C201.852 6.11254 202.814 7.06755 204.039 7.09771C208.12 7.20829 216.502 7.98235 216.502 12.5463V139.372C216.502 139.372 217.454 143.775 204.918 145.072C203.777 145.192 202.898 146.107 202.898 147.213V148.117C202.898 149.304 203.903 150.269 205.137 150.269H243.563C244.798 150.269 245.803 149.304 245.803 148.117V146.65C245.803 145.564 244.966 144.639 243.836 144.509C240.298 144.106 233.245 142.729 233.245 138.205C233.245 132.174 232.199 11.541 232.199 11.541C232.199 11.541 232.199 6.51465 243.679 5.79085C244.872 5.72048 245.803 4.78558 245.803 3.63957C245.803 2.45334 244.798 1.48828 243.563 1.48828H204.091C202.856 1.48828 201.852 2.45334 201.852 3.63957Z" fill="#56422F"/>
<path d="M334.275 12.1471V41.6845C334.275 42.9762 333.195 44.0358 331.855 44.0358C330.765 44.0358 329.83 43.2688 329.653 42.2294C328.334 34.4086 321.864 3.93277 301.031 5.68866C277.144 7.70693 270.913 33.9444 270.913 33.9444C270.913 33.9444 258.793 74.6428 270.913 121.073C276.853 143.839 308.197 154.375 317.502 138.37C318.292 137.007 318.686 135.463 318.686 133.899V84.4012C318.686 84.4012 320.182 76.5703 305.476 75.874C303.482 75.7831 301.934 74.1484 301.986 72.2209V72.0796C302.028 70.5155 303.347 69.2742 304.957 69.2742H343.819C345.429 69.2742 346.727 70.5357 346.727 72.0998V72.564C346.727 73.8557 345.657 74.8951 344.328 74.9254C340.704 74.996 334.265 76.1464 334.265 83.4021V138.208C334.265 140.61 332.946 142.84 330.796 144.031C320.338 149.773 288.298 163.285 262.605 130.842C232.092 92.2926 244.409 -24.6661 328.854 4.66943C332.104 5.79966 334.265 8.80689 334.265 12.1673L334.275 12.1471Z" fill="#56422F"/>
<path d="M367.9 62.5591C367.9 53.4629 367.9 36.3394 394.001 37.3478C420.103 38.3563 420.906 52.4443 421.107 61.5507C421.528 80.9936 421.107 139.343 421.107 139.343C421.107 139.938 420.866 140.502 420.434 140.906C419.049 142.207 415.425 144.98 408.859 146.029C407.815 146.19 407.042 147.087 407.042 148.146C407.042 149.336 407.996 150.294 409.18 150.294H447.59C448.774 150.294 449.728 149.336 449.728 148.146V147.834C449.728 146.724 448.885 145.787 447.78 145.686C443.815 145.323 435.141 144.092 435.141 140.21C435.141 135.168 435.583 37.3176 435.583 37.3176C435.583 37.3176 437.671 0.499023 398.258 0.499023C358.845 0.499023 360.792 37.9529 360.852 39.3244C360.852 39.3546 360.852 39.3849 360.852 39.4152L359.849 137.184C359.849 137.184 359.849 142.691 348.525 144.95C347.521 145.151 346.798 146.029 346.798 147.057V148.096C346.798 149.286 347.752 150.244 348.936 150.244L379.796 150.294C380.981 150.294 381.934 149.336 381.934 148.146V147.42C381.934 146.261 381.021 145.313 379.856 145.272C375.941 145.151 367.88 144.062 367.88 137.184V62.5591" fill="#56422F"/>
<path d="M368.353 38.8088C368.333 39.5046 369.186 39.8576 369.658 39.3433C372.971 35.7028 382.458 27.02 396.743 28.3612C410.838 29.6823 417.785 34.6842 420.134 36.7919C420.576 37.1852 421.269 36.9633 421.379 36.3784C422.423 30.8219 424.511 9.92676 397.677 7.41572C370.843 4.90468 368.564 31.1446 368.353 38.829V38.8088Z" fill="#FAF8F5"/>
<path d="M460.675 3.66108V4.981C460.675 6.15878 461.602 7.12334 462.781 7.1538C466.711 7.26549 474.783 8.04729 474.783 12.6569V140.75C474.783 140.75 475.7 145.198 463.627 146.507C462.529 146.629 461.683 147.553 461.683 148.67V149.584C461.683 150.782 462.65 151.757 463.839 151.757H500.842C502.031 151.757 502.998 150.782 502.998 149.584V148.101C502.998 147.005 502.192 146.071 501.104 145.939C497.698 145.533 490.906 144.142 490.906 139.573C490.906 133.481 489.898 11.6415 489.898 11.6415C489.898 11.6415 489.898 6.56491 500.953 5.83388C502.101 5.7628 502.998 4.81855 502.998 3.66108C502.998 2.46299 502.031 1.48828 500.842 1.48828H462.831C461.642 1.48828 460.675 2.46299 460.675 3.66108Z" fill="#56422F"/>
<path d="M507.881 4.28667V4.72423C507.881 6.2608 509.146 7.50227 510.711 7.51244C515.19 7.5328 523.433 8.31634 523.433 13.7096C523.433 21.5756 522.469 132.015 522.396 139.495C522.396 139.851 522.324 140.187 522.189 140.512C521.567 141.927 519.172 145.336 510.514 145.916C509.032 146.017 507.881 147.238 507.881 148.694V149.569C507.881 150.78 508.876 151.757 510.11 151.757H583.807C585.352 151.757 586.617 150.546 586.648 149.029L587.643 107.135C587.685 105.568 586.399 104.276 584.803 104.276H584.139C582.677 104.276 581.443 105.364 581.308 106.799C580.448 115.825 575.813 145.997 552.464 145.997C542.842 145.997 539.12 139.474 538.197 137.439C538.032 137.083 537.949 136.696 537.949 136.299V13.6994C537.949 13.6994 537.949 8.36722 549.799 7.66508C551.292 7.5735 552.464 6.35239 552.464 4.88705V4.27649C552.464 2.73992 551.189 1.48828 549.623 1.48828H510.722C509.156 1.48828 507.881 2.73992 507.881 4.27649V4.28667Z" fill="#56422F"/>
<path d="M0 177.854C0 179.563 1.54548 180.926 3.426 180.886C8.74332 180.778 18.3729 182.141 18.3729 193.589V344.771C18.3729 344.771 19.3455 353.829 2.90724 355.508C1.24287 355.676 0 356.99 0 358.521V359.222C0 360.911 1.51306 362.275 3.36115 362.255L67.9148 361.524C68.0445 361.524 68.1525 361.524 68.2822 361.504C72.2054 361.06 133.981 352.742 132.933 265.708C131.852 242.989 127.691 174.831 54.1135 174.831H3.31792C1.48064 174.831 0 176.184 0 177.864V177.854Z" fill="#56422F"/>
<path d="M62.5752 182.594C50.3626 181.587 39.9874 190.744 39.9874 201.945V342.044C39.9874 342.044 38.9066 355.596 58.3602 355.596C77.8139 355.596 115.64 348.682 113.479 268.671C111.317 188.66 79.0243 184.708 63.8289 182.733C63.4074 182.674 62.9859 182.634 62.5752 182.604V182.594Z" fill="#FAF8F5"/>
<path d="M132.933 178.415V180.005C132.933 181.951 134.662 183.551 136.802 183.531C142.476 183.472 152.386 184.282 152.386 190.634C152.386 199.524 153.467 322.998 153.467 322.998C153.467 322.998 154.548 366.461 206.424 365.473C258.3 364.485 256.139 323.986 256.139 323.986L257.22 194.812C257.22 194.684 257.22 194.565 257.198 194.437C257.047 193.182 256.463 184.075 272.004 182.86C274.025 182.702 275.593 181.19 275.593 179.343C275.593 177.397 273.863 175.817 271.734 175.817H230.795C228.666 175.817 226.948 177.387 226.937 179.324V180.054C226.926 181.971 228.58 183.561 230.676 183.601C236.339 183.699 246.412 185.082 246.412 193.597C246.412 205.233 247.45 315.807 247.493 319.916C247.493 320.005 247.493 320.074 247.493 320.163C247.32 322.573 244.142 358.46 209.677 355.595C175.212 352.731 174.012 326.949 174.012 312.132V189.646C174.012 189.646 172.11 183.551 189.759 182.81C191.834 182.722 193.466 181.181 193.466 179.284C193.466 177.358 191.78 175.787 189.672 175.758L136.867 174.898C134.705 174.859 132.943 176.449 132.943 178.425L132.933 178.415Z" fill="#56422F"/>
<path d="M174.001 291.379C174.001 291.379 174.001 323.976 209.666 325.952C245.331 327.927 248 291.379 248 291.379V316.755C248 316.755 233.443 336.817 208.585 335.83C183.728 334.842 174.001 325.132 174.001 325.132V291.379Z" fill="#56422F"/>
<path d="M371.746 303.106L380.403 342.657C380.414 342.726 380.436 342.785 380.457 342.844C380.944 344.445 387.774 365.425 409.605 364.477C424.152 363.845 428.929 359.963 430.485 357.256C431.242 355.952 430.734 354.333 429.351 353.572L427.773 352.703C426.681 352.1 425.309 352.199 424.304 352.92C422.358 354.303 418.543 356.229 412.837 355.577C404.191 354.589 395.545 332.858 394.464 316.065C393.383 299.273 384.37 281.542 369.207 275.25C368.126 274.805 367.445 273.818 367.445 272.731C367.445 271.526 368.288 270.449 369.552 270.084C377.15 267.881 403.002 258.112 408.514 226.176C413.28 198.597 386.542 184.353 372.017 178.733C367.196 176.866 357.545 175.809 352.314 175.799H290.808C289.133 175.799 287.761 177.043 287.761 178.584V179.859C287.761 181.4 289.122 182.644 290.808 182.634C295.261 182.615 303.334 182.96 306.144 185.608C306.663 186.102 306.912 186.783 306.912 187.465V348.929C306.912 349.147 306.955 349.354 307.009 349.561C307.333 350.717 307.56 355.182 292.386 356.397C290.819 356.525 289.609 357.731 289.609 359.163V359.716C289.609 361.247 290.971 362.502 292.657 362.502H351.255C352.93 362.502 354.303 361.257 354.303 359.716V359.667C354.303 358.155 352.995 356.921 351.342 356.891C344.749 356.743 329.381 355.646 328.527 348.672C327.446 339.782 327.446 277.551 327.446 277.551C327.446 277.551 328.138 272.494 337.27 271.99C342.188 271.714 347.04 273.057 351.126 275.576C352.12 276.188 353.211 276.89 354.357 277.68C363.392 283.873 369.509 292.981 371.725 303.106H371.746Z" fill="#56422F"/>
<path d="M331.793 188.649V254.11C331.793 254.11 331.793 265.697 351.246 265.697C370.7 265.697 390.997 250.88 391.115 227.173C391.234 203.466 380.719 183.71 355.18 181.735C329.642 179.759 331.793 188.649 331.793 188.649Z" fill="#FAF8F5"/>
<path d="M444.397 178.472V180.281C444.397 181.92 445.84 183.242 447.617 183.202C453.13 183.103 463.78 183.758 463.78 190.386C463.78 197.013 462.811 335.724 462.714 350.131C462.714 350.976 462.305 351.771 461.605 352.327C459.645 353.907 454.961 357.017 446.896 358.736C445.442 359.044 444.397 360.216 444.397 361.598V363.068C444.397 364.698 445.84 366.019 447.617 365.999L500.5 365.314C502.233 365.294 503.622 363.992 503.622 362.383C503.622 360.763 502.212 359.451 500.456 359.451C494.965 359.481 484.24 358.488 484.24 350.36V273.851C484.24 272.211 485.693 270.899 487.47 270.919L544.66 271.814C546.393 271.843 547.782 273.145 547.782 274.745V351.979C547.782 352.923 547.287 353.808 546.447 354.364C544.154 355.894 538.856 358.686 530.23 359.213C528.583 359.312 527.323 360.604 527.323 362.134V362.343C527.323 363.962 528.744 365.274 530.5 365.274H584.459C586.214 365.274 587.635 363.962 587.635 362.343V362.084C587.635 360.485 586.257 359.193 584.523 359.163C579.828 359.074 571.182 358.17 568.511 352.913C568.328 352.556 568.253 352.148 568.253 351.761V189.988C568.253 189.462 568.393 188.945 568.694 188.508C569.749 186.968 573.238 183.967 584.631 183.51C586.322 183.44 587.646 182.149 587.646 180.589V179.426C587.646 177.807 586.225 176.495 584.47 176.495H530.51C528.755 176.495 527.334 177.807 527.334 179.426V180.499C527.334 182.099 528.723 183.401 530.467 183.431C536.196 183.52 547.793 184.434 547.793 190.416V261.013C547.793 262.632 546.372 263.944 544.617 263.944H487.427C485.672 263.944 484.25 262.632 484.25 261.013V190.416C484.25 190.416 483.281 184.166 500.618 183.51C502.309 183.45 503.633 182.149 503.633 180.589V179.377C503.633 177.777 502.244 176.475 500.521 176.445L447.639 175.561C445.862 175.531 444.408 176.853 444.408 178.492L444.397 178.472Z" fill="#56422F"/>
<path d="M628.385 249.269C628.385 237.633 628.385 215.723 665.12 217.017C701.855 218.311 702.99 236.329 703.271 247.985C703.865 272.857 703.271 347.505 703.271 347.505C703.271 348.265 702.936 348.986 702.331 349.51C700.375 351.179 695.284 354.726 686.044 356.059C684.585 356.267 683.493 357.412 683.493 358.766C683.493 360.287 684.844 361.512 686.509 361.512H740.557C742.222 361.512 743.573 360.277 743.573 358.766V358.361C743.573 356.938 742.394 355.743 740.838 355.615C735.251 355.15 723.06 353.58 723.06 348.611C723.06 342.161 723.687 216.978 723.687 216.978C723.687 216.978 726.626 169.88 671.151 169.88C615.676 169.88 618.421 217.798 618.507 219.546C618.507 219.586 618.507 219.625 618.507 219.665L617.092 344.739C617.092 344.739 617.092 351.782 601.161 354.666C599.756 354.923 598.729 356.049 598.729 357.363V358.696C598.729 360.218 600.07 361.443 601.734 361.443L645.159 361.502C646.823 361.502 648.174 360.277 648.174 358.756V357.837C648.174 356.346 646.877 355.14 645.256 355.091C639.755 354.933 628.396 353.54 628.396 344.749V249.279" fill="#56422F"/>
<path d="M629.023 218.886C629.001 219.775 630.201 220.22 630.86 219.568C635.518 214.915 648.876 203.803 668.978 205.512C688.821 207.201 698.591 213.602 701.898 216.288C702.514 216.792 703.498 216.506 703.649 215.755C705.119 208.643 708.059 181.913 670.297 178.693C633.043 175.522 629.325 209.048 629.034 218.876L629.023 218.886Z" fill="#FAF8F5"/>
<path d="M755.312 362.771V362.941C755.312 364.63 756.789 366 758.613 366H801.031C803.081 366 804.634 364.29 804.289 362.421L804.214 362.011C803.955 360.592 802.671 359.542 801.128 359.462C796.079 359.222 785.518 357.613 785.518 348.487C785.518 339.361 788.603 256.536 790.114 216.713C790.243 213.175 795.67 212.635 796.619 216.063L836.664 360.182C837.042 361.531 838.358 362.481 839.868 362.481H842.285C843.795 362.481 845.122 361.531 845.489 360.172L885.491 213.624C886.429 210.186 891.877 210.726 891.996 214.274L896.635 347.487C896.635 347.487 898.577 358.303 880.312 359.392C878.576 359.492 877.216 360.832 877.216 362.441C877.216 364.12 878.673 365.49 880.485 365.5L932.667 365.96C934.501 365.98 936 364.6 936 362.901V362.561C936 360.942 934.63 359.612 932.883 359.522C927.273 359.212 916.042 357.483 916.042 348.487C916.042 336.492 910.648 187.555 910.648 187.555C910.648 187.555 910.648 182.228 927.801 182.448C929.635 182.468 931.146 181.088 931.146 179.389V178.619C931.146 176.93 929.668 175.561 927.845 175.561H888.587C887.077 175.561 885.75 176.51 885.383 177.87L847.269 317.53C847.118 318.1 846.557 318.5 845.931 318.5C845.295 318.5 844.744 318.1 844.593 317.53L807.698 178.839C807.342 177.5 806.058 176.54 804.57 176.51L764.384 175.631C762.604 175.591 761.105 176.87 761.008 178.529L760.921 180.069C760.813 181.878 762.41 183.377 764.352 183.297C769.163 183.097 777.298 183.297 779.682 186.696C780.005 187.166 780.135 187.715 780.124 188.275C779.908 201.739 774.978 342.47 774.741 349.247C774.741 349.437 774.708 349.617 774.665 349.796C774.234 351.486 771.44 359.872 758.71 359.722C756.854 359.702 755.322 361.062 755.322 362.781L755.312 362.771Z" fill="#56422F"/>
</svg>
