<?xml version="1.0" encoding="UTF-8"?>
<svg id="Layer_2" data-name="Layer 2" xmlns="http://www.w3.org/2000/svg" viewBox="0 0 1363 157.02">
  <defs>
    <style>
      .cls-1 {
        fill: #5c4d3c;
      }

      .cls-2 {
        fill: #fff;
      }
    </style>
  </defs>
  <g id="Layer_1-2" data-name="Layer 1">
    <g>
      <path class="cls-1" d="M21,65c0-9.02,0-26,26-25s26.8,14.97,27,24c.42,19.28,0,77.14,0,77.14,0,.59-.24,1.15-.67,1.55-1.38,1.29-4.99,4.04-11.53,5.08-1.04.16-1.81,1.05-1.81,2.1h0c0,1.18.95,2.13,2.13,2.13h38.26c1.18,0,2.13-.95,2.13-2.13v-.31c0-1.1-.84-2.03-1.94-2.13-3.95-.36-12.59-1.58-12.59-5.43,0-5,.44-102.03.44-102.03,0,0,2.08-36.51-37.18-36.51S13.94,40.61,14,41.96c0,.03,0,.06,0,.09l-1,96.95s0,5.46-11.28,7.7c-1,.2-1.72,1.07-1.72,2.09v1.03c0,1.18.95,2.13,2.13,2.13l30.74.05c1.18,0,2.13-.95,2.13-2.13v-.72c0-1.15-.91-2.09-2.07-2.13-3.9-.12-11.93-1.2-11.93-8.02v-74"/>
      <path class="cls-2" d="M21.45,41.45c-.02.69.83,1.04,1.3.53,3.3-3.61,12.75-12.22,26.98-10.89,14.04,1.31,20.96,6.27,23.3,8.36.44.39,1.13.17,1.24-.41,1.04-5.51,3.12-26.23-23.61-28.72s-29,23.53-29.21,31.15Z"/>
    </g>
    <g>
      <path class="cls-1" d="M111,6.95v1.12c0,1.09.88,1.97,1.97,1.95,3.15-.06,9.22.28,11.69,3.49.24.31.34.71.34,1.1v126.29c0,.51-.2,1.01-.56,1.37-1.11,1.1-3.99,3.27-9.6,3.67-1.03.07-1.83.91-1.83,1.94v1.18c0,1.08.87,1.95,1.95,1.95h41.59c11.42,0,22.6-3.91,31.19-11.44,6.86-6.01,12.7-14.66,12.27-26.56-.97-27.09-14.1-39.2-28.54-42.68-.86-.21-1.46-1-1.46-1.88h0c0-.82.51-1.56,1.29-1.83,3.03-1.08,10.75-4.69,16.06-14.83s5.47-21.28.27-30.89c-1.69-3.12-3.73-5.64-5.88-7.67-5.72-5.4-13.41-8.21-21.28-8.21h-47.52c-1.08,0-1.95.87-1.95,1.95Z"/>
      <path class="cls-2" d="M135.7,20.33c.05-2.95,1.95-5.73,5.07-6.98,1.84-.74,4.35-1.27,7.75-1.31,11.67-.11,30.44,9.71,29.45,28.72s-16.08,28.15-28.91,28.28c-8.07.08-11.56-3.05-13.04-5.39-.72-1.14-1.04-2.44-1.02-3.75l.7-39.57Z"/>
      <path class="cls-2" d="M135,86.16v47.18s1.14,13.41,18.19,11.47,26.16-10.67,29.57-19.4,12.05-43.96-27.29-51.42c-3.84-.73-7.36-.5-10.37.27-6.07,1.56-10.09,6.49-10.09,11.9Z"/>
    </g>
    <path class="cls-1" d="M202,6.14v1.3c0,1.16.92,2.11,2.09,2.14,3.9.11,11.91.88,11.91,5.42v126.16s.91,4.38-11.07,5.67c-1.09.12-1.93,1.03-1.93,2.13v.9c0,1.18.96,2.14,2.14,2.14h36.72c1.18,0,2.14-.96,2.14-2.14v-1.46c0-1.08-.8-2-1.88-2.13-3.38-.4-10.12-1.77-10.12-6.27,0-6-1-126-1-126,0,0,0-5,10.97-5.72,1.14-.07,2.03-1,2.03-2.14h0c0-1.18-.96-2.14-2.14-2.14h-37.72c-1.18,0-2.14.96-2.14,2.14Z"/>
    <path class="cls-1" d="M333,14.4v29.27c0,1.28-1.04,2.33-2.33,2.33h0c-1.05,0-1.95-.76-2.12-1.79-1.27-7.75-7.5-37.95-27.56-36.21-23,2-29,28-29,28,0,0-11.67,40.33,0,86.34,5.72,22.56,35.9,33,44.86,17.14.76-1.35,1.14-2.88,1.14-4.43v-49.05s1.44-7.76-12.72-8.45c-1.92-.09-3.41-1.71-3.36-3.62v-.14c.04-1.55,1.31-2.78,2.86-2.78h37.42c1.55,0,2.8,1.25,2.8,2.8v.46c0,1.28-1.03,2.31-2.31,2.34-3.49.07-9.69,1.21-9.69,8.4v54.31c0,2.38-1.27,4.59-3.34,5.77-10.07,5.69-40.92,19.08-65.66-13.07-29.38-38.2-17.52-154.1,63.79-125.03,3.13,1.12,5.21,4.1,5.21,7.43Z"/>
    <g>
      <path class="cls-1" d="M366.41,65.17c0-9.02,0-26,26-25s26.8,14.97,27,24c.42,19.28,0,77.14,0,77.14,0,.59-.24,1.15-.67,1.55-1.38,1.29-4.99,4.04-11.53,5.08-1.04.16-1.81,1.05-1.81,2.1h0c0,1.18.95,2.13,2.13,2.13h38.26c1.18,0,2.13-.95,2.13-2.13v-.31c0-1.1-.84-2.03-1.94-2.13-3.95-.36-12.59-1.58-12.59-5.43,0-5,.44-102.03.44-102.03,0,0,2.08-36.51-37.18-36.51s-37.32,37.14-37.26,38.5c0,.03,0,.06,0,.09l-1,96.95s0,5.46-11.28,7.7c-1,.2-1.72,1.07-1.72,2.09v1.03c0,1.18.95,2.13,2.13,2.13l30.74.05c1.18,0,2.13-.95,2.13-2.13v-.72c0-1.15-.91-2.09-2.07-2.13-3.9-.12-11.93-1.2-11.93-8.02v-74"/>
      <path class="cls-2" d="M366.86,41.61c-.02.69.83,1.04,1.3.53,3.3-3.61,12.75-12.22,26.98-10.89s20.96,6.27,23.3,8.36c.44.39,1.13.17,1.24-.41,1.04-5.51,3.12-26.23-23.61-28.72s-29,23.53-29.21,31.15Z"/>
    </g>
    <path class="cls-1" d="M458,7.14v1.3c0,1.16.92,2.11,2.09,2.14,3.9.11,11.91.88,11.91,5.42v126.16s.91,4.38-11.07,5.67c-1.09.12-1.93,1.03-1.93,2.13v.9c0,1.18.96,2.14,2.14,2.14h36.72c1.18,0,2.14-.96,2.14-2.14v-1.46c0-1.08-.8-2-1.88-2.13-3.38-.4-10.12-1.77-10.12-6.27,0-6-1-126-1-126,0,0,0-5,10.97-5.72,1.14-.07,2.03-1,2.03-2.14h0c0-1.18-.96-2.14-2.14-2.14h-37.72c-1.18,0-2.14.96-2.14,2.14Z"/>
    <path class="cls-1" d="M509,7.74v.43c0,1.51,1.22,2.73,2.73,2.74,4.32.02,12.27.79,12.27,6.09,0,7.73-.93,116.26-1,123.61,0,.35-.07.68-.2,1-.6,1.39-2.91,4.74-11.26,5.31-1.43.1-2.54,1.3-2.54,2.73v.86c0,1.19.96,2.15,2.15,2.15h71.08c1.49,0,2.71-1.19,2.74-2.68l.96-41.17c.04-1.54-1.2-2.81-2.74-2.81h-.64c-1.41,0-2.6,1.07-2.73,2.48-.83,8.87-5.3,38.52-27.82,38.52-9.28,0-12.87-6.41-13.76-8.41-.16-.35-.24-.73-.24-1.12V17s0-5.24,11.43-5.93c1.44-.09,2.57-1.29,2.57-2.73v-.6c0-1.51-1.23-2.74-2.74-2.74h-37.52c-1.51,0-2.74,1.23-2.74,2.74Z"/>
    <g>
      <path class="cls-1" d="M657,6.4h0c0,1.38,1.16,2.46,2.56,2.43,3.98-.09,11.19,1.01,11.19,10.2v121.36s.73,7.27-11.58,8.62c-1.25.14-2.18,1.19-2.18,2.41v.56c0,1.36,1.13,2.45,2.52,2.43l48.34-.59c.09,0,.18,0,.27-.02,2.94-.35,49.19-7.03,48.4-76.9-.81-18.24-3.92-72.95-59.01-72.95h-38.03c-1.37,0-2.48,1.09-2.48,2.43Z"/>
      <path class="cls-2" d="M703.85,10.2c-9.14-.81-16.91,6.54-16.91,15.53v112.46s-.81,10.88,13.76,10.88,42.89-5.55,41.27-69.78c-1.62-64.23-25.8-67.4-37.17-68.99-.32-.04-.63-.08-.94-.11Z"/>
    </g>
    <path class="cls-1" d="M859.64,4.76h-30.65c-1.59,0-2.88,1.26-2.89,2.82v.59c-.01,1.54,1.23,2.81,2.8,2.84,4.24.08,11.78,1.19,11.78,8.02s.4,54.67.64,82.19c-1.56,7.83-7.39,25.29-28.15,24.06-26.7-1.59-26.7-27.75-26.7-27.75V15.86s-1.42-4.88,11.74-5.49c1.33-.06,2.51-.98,2.77-2.25.36-1.79-1.01-3.38-2.78-3.41l-39.53-.69c-1.62-.03-2.94,1.25-2.94,2.83v1.27c0,1.57,1.3,2.85,2.89,2.83,4.25-.05,11.67.6,11.67,5.7,0,7.14.81,106.25.81,106.25,0,0,.81,34.89,39.65,34.1,38.84-.79,37.22-33.3,37.22-33.3l.81-103.69v-.3c-.13-1.01-.56-8.36,11.15-9.3,1.47-.12,2.61-1.29,2.61-2.74v-.07c0-1.58-1.29-2.85-2.89-2.85ZM841.48,120.63c1.24-1.51-2.51,30.74-28.31,28.44-19.2-1.71-24.59-12.84-26.1-23.39-.03-.2.21-.32.36-.2,2.51,2.05,10.15,7.1,24.93,7.73,0,0,18.6.2,29.12-12.59Z"/>
    <path class="cls-1" d="M935.33,106.94l6.48,31.75c.01.05.02.1.04.15.37,1.28,5.48,18.13,21.83,17.37,10.89-.51,14.47-3.62,15.64-5.8.56-1.05.19-2.34-.85-2.95l-1.18-.7c-.82-.48-1.84-.4-2.59.17-1.45,1.11-4.32,2.66-8.58,2.14-6.47-.79-12.95-18.24-13.76-31.72s-7.56-27.71-18.91-32.77c-.81-.36-1.32-1.15-1.32-2.02h0c0-.97.63-1.83,1.57-2.12,5.69-1.77,25.04-9.61,29.17-35.25,3.57-22.14-16.45-33.57-27.32-38.09-3.61-1.5-10.83-2.35-14.75-2.35h-46.05c-1.26,0-2.28,1-2.28,2.23v1.02c0,1.24,1.02,2.24,2.28,2.23,3.34-.02,9.38.26,11.48,2.38.39.39.58.94.58,1.49v129.61c0,.17.03.34.07.51.24.92.41,4.51-10.94,5.49-1.17.1-2.08,1.07-2.08,2.22v.44c0,1.23,1.02,2.23,2.28,2.23h43.87c1.26,0,2.28-1,2.28-2.23v-.04c0-1.21-.98-2.2-2.22-2.23-4.94-.12-16.44-1-17.08-6.6-.81-7.14-.81-57.09-.81-57.09,0,0,.52-4.06,7.35-4.47,3.68-.22,7.31.86,10.37,2.88.75.49,1.56,1.06,2.42,1.69,6.76,4.97,11.35,12.28,13.01,20.41Z"/>
    <path class="cls-2" d="M905.42,15.07v52.55s0,9.3,14.57,9.3,29.76-11.89,29.85-30.92c.09-19.03-7.78-34.89-26.91-36.48-19.13-1.59-17.51,5.55-17.51,5.55Z"/>
    <path class="cls-1" d="M988.76,6.34v1.44c0,1.3,1.09,2.36,2.42,2.34,4.14-.08,12.15.44,12.15,5.74,0,6.76-.73,115.99-.8,127.48,0,.68-.31,1.31-.83,1.76-1.48,1.26-4.99,3.74-11.06,5.11-1.09.25-1.88,1.18-1.88,2.28v1.17c0,1.3,1.09,2.35,2.42,2.34l39.74-.55c1.3-.02,2.35-1.06,2.35-2.34h0c0-1.29-1.06-2.34-2.38-2.34-4.13.02-12.18-.77-12.18-7.26v-61.06c0-1.31,1.09-2.36,2.42-2.34l42.97.71c1.3.02,2.34,1.06,2.34,2.34v61.64c0,.76-.37,1.46-1,1.9-1.72,1.22-5.7,3.45-12.19,3.87-1.24.08-2.19,1.11-2.19,2.33v.16c0,1.29,1.07,2.34,2.38,2.34h40.55c1.32,0,2.38-1.05,2.38-2.34v-.21c0-1.28-1.04-2.31-2.34-2.33-3.53-.07-10.02-.8-12.03-4.98-.14-.29-.19-.61-.19-.92V15.53c0-.42.1-.83.33-1.19.79-1.23,3.42-3.63,11.97-3.99,1.27-.05,2.26-1.09,2.26-2.33v-.93c0-1.29-1.07-2.34-2.38-2.34h-40.55c-1.32,0-2.38,1.05-2.38,2.34v.85c0,1.28,1.05,2.31,2.35,2.34,4.31.07,13.02.8,13.02,5.58v56.34c0,1.29-1.07,2.34-2.38,2.34h-42.97c-1.32,0-2.38-1.05-2.38-2.34V15.86s-.73-4.99,12.3-5.51c1.27-.05,2.27-1.09,2.27-2.33v-.97c0-1.27-1.04-2.31-2.34-2.34l-39.74-.71c-1.33-.02-2.43,1.03-2.43,2.34Z"/>
    <g>
      <path class="cls-1" d="M1127.48,63.73c0-9.34,0-26.93,27.5-25.89s28.35,15.5,28.56,24.86c.44,19.97,0,79.89,0,79.89,0,.61-.25,1.19-.71,1.61-1.46,1.34-5.28,4.19-12.19,5.26-1.1.17-1.91,1.09-1.91,2.18h0c0,1.22,1.01,2.21,2.25,2.21h40.47c1.25,0,2.25-.99,2.25-2.21v-.32c0-1.14-.89-2.1-2.05-2.2-4.18-.37-13.31-1.63-13.31-5.62,0-5.18.47-105.67.47-105.67,0,0,2.2-37.81-39.33-37.81s-39.48,38.47-39.42,39.87c0,.03,0,.06,0,.09l-1.06,100.41s0,5.65-11.93,7.97c-1.05.21-1.82,1.11-1.82,2.16v1.07c0,1.22,1.01,2.21,2.25,2.21l32.51.05c1.25,0,2.26-.99,2.26-2.21v-.74c0-1.2-.97-2.17-2.19-2.21-4.12-.13-12.62-1.24-12.62-8.31V63.73"/>
      <path class="cls-2" d="M1127.96,39.34c-.02.71.88,1.07,1.37.54,3.49-3.74,13.49-12.65,28.54-11.28,14.85,1.35,22.17,6.49,24.65,8.65.46.4,1.2.17,1.31-.42,1.1-5.71,3.3-27.17-24.97-29.75-27.9-2.54-30.68,24.37-30.89,32.26Z"/>
    </g>
    <path class="cls-1" d="M1227.47,152.47v.14c0,1.34,1.11,2.43,2.48,2.43h31.81c1.54,0,2.7-1.35,2.44-2.84l-.06-.33c-.19-1.12-1.15-1.96-2.31-2.02-3.78-.19-11.71-1.46-11.71-8.71s2.32-72.95,3.44-104.53c.1-2.8,4.16-3.23,4.88-.52l30.04,114.32c.28,1.07,1.27,1.82,2.4,1.82h1.81c1.14,0,2.13-.76,2.4-1.83l30.01-116.25c.7-2.73,4.79-2.3,4.88.52l3.48,105.67s1.46,8.58-12.25,9.44c-1.3.08-2.32,1.14-2.32,2.42h0c0,1.33,1.1,2.42,2.46,2.43l39.14.36c1.38.01,2.5-1.08,2.5-2.43v-.27c0-1.29-1.03-2.34-2.34-2.41-4.21-.24-12.63-1.62-12.63-8.76,0-9.52-4.05-127.66-4.05-127.66,0,0,0-4.22,12.86-4.05,1.38.02,2.51-1.08,2.51-2.43v-.61c0-1.34-1.11-2.43-2.48-2.43h-29.44c-1.14,0-2.13.76-2.4,1.83l-28.59,110.79c-.12.45-.53.77-1,.77h0c-.48,0-.89-.32-1.01-.77l-27.67-110.02c-.27-1.06-1.23-1.82-2.35-1.85l-30.14-.69c-1.34-.03-2.46.99-2.53,2.3l-.07,1.22c-.08,1.43,1.11,2.63,2.58,2.56,3.61-.16,9.71,0,11.5,2.69.24.37.34.81.33,1.25-.16,10.68-3.86,122.32-4.03,127.69,0,.15-.02.29-.06.43-.33,1.34-2.42,7.99-11.97,7.87-1.39-.02-2.54,1.06-2.54,2.43Z"/>
  </g>
</svg>